<svg width="20" height="15" viewBox="0 0 20 15" fill="none" xmlns="http://www.w3.org/2000/svg">
<path fill-rule="evenodd" clip-rule="evenodd" d="M2.37167 3.06015C2.39667 2.8279 2.3025 2.5988 2.11917 2.44292L0.2525 0.317273V0H6.05083L10.5325 9.28594L14.4725 0H20V0.317273L18.4033 1.7635C18.2658 1.8627 18.1975 2.02567 18.2258 2.18706V12.8137C18.1975 12.9743 18.2658 13.1373 18.4033 13.2365L19.9625 14.6827V15H12.1192V14.6827L13.735 13.2011C13.8933 13.0515 13.8933 13.0074 13.8933 12.7783V4.1891L9.4025 14.9654H8.79583L3.56667 4.1891V11.4116C3.52333 11.7147 3.63 12.0209 3.85583 12.2398L5.95667 14.6473V14.9654H0V14.6473L2.10083 12.2398C2.32583 12.0202 2.42583 11.7123 2.37167 11.4116V3.06015Z" fill="#6988FF"/>
</svg>
